name Walk3.mot
datacolumns 19
datarows 10
range 1.68300000 1.69200000
endheader

                time	   L_ground_force_vx	   L_ground_force_vy	   L_ground_force_vz	   L_ground_force_px	   L_ground_force_py	   L_ground_force_pz	   R_ground_force_vx	   R_ground_force_vy	   R_ground_force_vz	   R_ground_force_px	   R_ground_force_py	   R_ground_force_pz	   L_ground_torque_x	   L_ground_torque_y	   L_ground_torque_z	   R_ground_torque_x	   R_ground_torque_y	   R_ground_torque_z	
          1.68300000	          0.07033286	          0.16333025	         -0.00958015	         -0.00032676	          0.00000000	         -0.00004933	        -26.78350694	        699.75746405	        -41.57618428	          0.28449142	          0.00000000	          0.09101590	          0.00000000	         -0.00024613	          0.00000000	          0.00000000	          5.03102380	          0.00000000	
          1.68400000	          0.06666352	          0.15455288	         -0.00963457	         -0.00032492	          0.00000000	         -0.00004922	        -26.57153247	        698.78268334	        -41.50310401	          0.28497203	          0.00000000	          0.09104152	          0.00000000	         -0.00024657	          0.00000000	          0.00000000	          4.99682793	          0.00000000	
          1.68500000	          0.06305425	          0.14593779	         -0.00964796	         -0.00032200	          0.00000000	         -0.00004893	        -26.36263282	        697.81921119	        -41.43509139	          0.28545171	          0.00000000	          0.09106692	          0.00000000	         -0.00024605	          0.00000000	          0.00000000	          4.96377568	          0.00000000	
          1.68600000	          0.05951358	          0.13750372	         -0.00962375	         -0.00031811	          0.00000000	         -0.00004849	        -26.15675661	        696.86718592	        -41.37215035	          0.28593044	          0.00000000	          0.09109211	          0.00000000	         -0.00024464	          0.00000000	          0.00000000	          4.93185189	          0.00000000	
          1.68700000	          0.05604907	          0.12926715	         -0.00956523	         -0.00031336	          0.00000000	         -0.00004790	        -25.95384443	        695.92675286	        -41.31427500	          0.28640820	          0.00000000	          0.09111706	          0.00000000	         -0.00024242	          0.00000000	          0.00000000	          4.90103863	          0.00000000	
          1.68800000	          0.05266734	          0.12124242	         -0.00947555	         -0.00030782	          0.00000000	         -0.00004718	        -25.75382809	        694.99806521	        -41.26144992	          0.28688497	          0.00000000	          0.09114179	          0.00000000	         -0.00023948	          0.00000000	          0.00000000	          4.87131534	          0.00000000	
          1.68900000	          0.04937411	          0.11344184	         -0.00935768	         -0.00030159	          0.00000000	         -0.00004634	        -25.55663009	        694.08128488	        -41.21365087	          0.28736070	          0.00000000	          0.09116628	          0.00000000	         -0.00023588	          0.00000000	          0.00000000	          4.84265908	          0.00000000	
          1.69000000	          0.04617431	          0.10587583	         -0.00921448	         -0.00029475	          0.00000000	         -0.00004540	        -25.36216339	        693.17658401	        -41.17084566	          0.28783537	          0.00000000	          0.09119052	          0.00000000	         -0.00023170	          0.00000000	          0.00000000	          4.81504480	          0.00000000	
          1.69100000	          0.04307210	          0.09855303	         -0.00904863	         -0.00028738	          0.00000000	         -0.00004436	        -25.17033150	        692.28414709	        -41.13299509	          0.28830893	          0.00000000	          0.09121448	          0.00000000	         -0.00022700	          0.00000000	          0.00000000	          4.78844579	          0.00000000	
          1.69200000	          0.04007088	          0.09148044	         -0.00886269	         -0.00027954	          0.00000000	         -0.00004325	        -24.98102903	        691.40417324	        -41.10005381	          0.28878135	          0.00000000	          0.09123813	          0.00000000	         -0.00022184	          0.00000000	          0.00000000	          4.76283402	          0.00000000	
